<?xml version="1.0" encoding="utf-8"?>
<!-- Generator: Adobe Illustrator 27.5.0, SVG Export Plug-In . SVG Version: 6.00 Build 0)  -->
<svg version="1.1" xmlns="http://www.w3.org/2000/svg" xmlns:xlink="http://www.w3.org/1999/xlink" x="0px" y="0px"
	 viewBox="0 0 3710 3710" style="enable-background:new 0 0 3710 3710;" xml:space="preserve">
<g id="Background">
	<g>
		<g>
			<rect style="fill:#FFFFFF;" width="3710" height="3710"/>
		</g>
	</g>
</g>
<g id="Illustration">
	<g>
		<path style="fill:#F4F7FA;" d="M2996.468,1066.248c-41.08-56.23-392.77-521.226-962.842-498.576
			c-28.486,1.132-584.46,30.494-789.528,394.994c-151.695,269.631,8.905,508.861-176.151,692.567
			c-161.246,160.07-359.412,54.12-458.502,183.559c-150.94,197.175,89.435,729.692,458.758,1026.671
			c381.349,306.652,1110.914,531.624,1677.96,122.491C3382.795,2528.617,3376.335,1586.196,2996.468,1066.248z"/>
		<g>
			<linearGradient id="SVGID_1_" gradientUnits="userSpaceOnUse" x1="3208.7061" y1="380.6023" x2="2530.7075" y2="970.2891">
				<stop  offset="0" style="stop-color:#AA80F9"/>
				<stop  offset="0.9964" style="stop-color:#6165D7"/>
			</linearGradient>
			<path style="fill:url(#SVGID_1_);" d="M2292.048,494.311l11.874,60.82c-26.483,10.493-51.759,23.075-75.519,37.729l-40.57-46.584
				c-11.069-12.71-30.376-13.899-43.129-2.66l-79.845,70.367c-12.781,11.266-14.19,30.737-3.136,43.495l40.923,47.231
				c-17.599,22.116-33.321,45.712-46.935,70.55l-59.267-20.153c-15.981-5.434-33.458,3.289-39.039,19.488L1922.43,876.09
				c-5.603,16.259,2.828,33.882,18.843,39.353l59.47,20.321c-4.415,27.765-6.382,56.17-5.957,84.928l-62.218,12.688
				c-16.703,3.406-27.688,19.875-24.534,36.792l19.769,106.022c3.168,16.99,19.319,28.001,36.071,24.585l62.402-12.726
				c10.083,26.987,22.282,52.752,36.551,76.996l-47.983,42.649c-12.94,11.5-14.38,31.43-3.21,44.519l69.984,81.996
				c11.212,13.137,30.813,14.428,43.767,2.877l47.979-42.772c21.987,18.085,45.514,34.171,70.279,48.126l-20.647,61.362
				c-5.59,16.615,3.043,34.653,19.29,40.283l101.713,35.25c16.283,5.645,33.993-3.287,39.55-19.941l20.317-60.89
				c27.897,4.442,56.439,6.295,85.326,5.669l12.304,63.031c3.369,17.254,19.799,28.458,36.697,25.011l105.67-21.55
				c16.896-3.446,27.82-20.228,24.402-37.472l-12.389-62.493c27.084-10.638,52.883-23.494,77.122-38.471l41.162,47.506
				c11.428,13.19,31.15,14.489,44.041,2.894l80.532-72.416c12.864-11.567,14.006-31.599,2.562-44.739l-41.027-47.11
				c17.906-22.776,33.768-47.116,47.456-72.695l58.415,19.96c16.325,5.58,33.926-3.298,39.303-19.818l33.567-103.114
				c5.358-16.46-3.513-34.287-19.803-39.826l-57.856-19.672c4.143-28.423,5.692-57.468,4.771-86.816l59.676-12.17
				c16.752-3.416,27.492-19.912,23.989-36.833l-21.863-105.595c-3.489-16.85-19.858-27.74-36.561-24.333l-59.5,12.134
				c-10.665-27.158-23.452-53.024-38.342-77.27l45.192-40.29c12.708-11.328,13.827-30.898,2.504-43.706l-70.67-79.95
				c-11.28-12.761-30.708-13.958-43.4-2.676l-45.479,40.424c-22.28-17.733-46.031-33.492-71.01-47.041l19.314-57.882
				c5.374-16.107-3.291-33.525-19.347-38.909l-100.305-33.629c-16.022-5.371-33.389,3.297-38.796,19.367l-19.523,58.018
				c-27.605-4.085-55.816-5.681-84.356-4.807l-11.954-60.301c-3.29-16.592-19.382-27.299-35.943-23.922l-103.575,21.122
				C2299.607,461.518,2288.808,477.709,2292.048,494.311z M2173.863,1070.936c-32.597-170.535,77.322-335.806,245.334-370.07
				c168.01-34.263,331.976,75.154,366.414,245.314c34.646,171.19-74.811,338.81-244.667,373.449
				C2371.086,1354.27,2206.657,1242.504,2173.863,1070.936z"/>
			
				<linearGradient id="SVGID_00000000181644240766070170000004237708256990739612_" gradientUnits="userSpaceOnUse" x1="3129.0603" y1="1376.3788" x2="1105.8306" y2="150.6279">
				<stop  offset="0" style="stop-color:#AA80F9"/>
				<stop  offset="0.9964" style="stop-color:#6165D7"/>
			</linearGradient>
			<path style="fill:url(#SVGID_00000000181644240766070170000004237708256990739612_);" d="M3071.79,928.569l-21.862-105.595
				c-3.49-16.849-19.859-27.74-36.561-24.333l-59.5,12.134c-10.664-27.158-23.451-53.024-38.341-77.27l45.192-40.29
				c12.708-11.328,13.827-30.898,2.505-43.706l-70.671-79.95c-11.28-12.761-30.708-13.958-43.4-2.676l-45.48,40.424
				c-22.279-17.733-46.031-33.492-71.01-47.041l19.314-57.882c5.374-16.108-3.291-33.525-19.348-38.909l-100.305-33.629
				c-16.021-5.371-33.388,3.297-38.795,19.367l-19.523,58.018c-27.605-4.085-55.817-5.681-84.357-4.807l-11.954-60.3
				c-3.291-16.592-19.382-27.299-35.943-23.922l-103.575,21.122c-16.563,3.378-27.364,19.569-24.122,36.171l11.874,60.82
				c-26.483,10.493-51.759,23.076-75.518,37.729l-40.57-46.584c-11.069-12.71-30.376-13.899-43.13-2.66l-79.845,70.367
				c-12.782,11.266-14.19,30.737-3.137,43.494l40.922,47.232c-17.598,22.116-33.32,45.712-46.934,70.55l-59.267-20.153
				c-15.981-5.434-33.458,3.289-39.039,19.489l-34.974,101.494c-5.603,16.259,2.829,33.882,18.844,39.353l59.47,20.321
				c-4.415,27.765-6.382,56.171-5.957,84.928l-62.218,12.688c-16.703,3.406-27.689,19.875-24.534,36.792l19.768,106.022
				c3.168,16.99,19.319,28.001,36.07,24.585l62.404-12.726c10.082,26.987,22.281,52.752,36.551,76.996l-47.983,42.65
				c-12.941,11.5-14.38,31.43-3.21,44.519l69.983,81.996c11.212,13.137,30.813,14.428,43.768,2.877l47.979-42.772
				c21.988,18.085,45.515,34.171,70.279,48.126l-20.647,61.362c-5.59,16.615,3.043,34.653,19.289,40.284l101.714,35.25
				c16.283,5.645,33.993-3.287,39.55-19.941l20.317-60.89c27.896,4.442,56.439,6.295,85.326,5.669l12.305,63.031
				c3.368,17.254,19.797,28.458,36.697,25.011l105.67-21.55c16.896-3.446,27.82-20.228,24.403-37.472l-12.389-62.493
				c27.083-10.638,52.883-23.493,77.121-38.471l41.162,47.506c11.428,13.191,31.15,14.489,44.042,2.894l80.532-72.416
				c12.863-11.566,14.006-31.599,2.562-44.74l-41.028-47.11c17.906-22.776,33.768-47.117,47.456-72.696l58.414,19.96
				c16.326,5.58,33.926-3.298,39.303-19.818l33.568-103.114c5.356-16.46-3.514-34.287-19.804-39.826l-57.855-19.672
				c4.142-28.423,5.692-57.468,4.771-86.816l59.675-12.17C3064.552,961.987,3075.294,945.491,3071.79,928.569z M2562.949,1300.814
				c-169.858,34.64-334.287-77.126-367.082-248.694c-32.597-170.535,77.322-335.806,245.335-370.069
				c168.01-34.263,331.976,75.153,366.413,245.313C2842.262,1098.554,2732.806,1266.175,2562.949,1300.814z"/>
		</g>
		<g>
			<g>
				
					<linearGradient id="SVGID_00000019675267854182521440000009626027427833319605_" gradientUnits="userSpaceOnUse" x1="1927.1049" y1="1701.7649" x2="1200.6481" y2="2524.3694" gradientTransform="matrix(0.9895 -0.1447 0.1447 0.9895 -639.3816 136.1145)">
					<stop  offset="0.0036" style="stop-color:#E38DDD"/>
					<stop  offset="1" style="stop-color:#9571F6"/>
				</linearGradient>
				<path style="fill:url(#SVGID_00000019675267854182521440000009626027427833319605_);" d="M2174.051,2757.735
					c-602.222,103.409-787.413,23.254-842.094-72.972c-31.792-55.946-35.074-144.788-125.767-256.942
					c-76.436-94.522-120.409-88.682-153.147-161.157c-56.787-125.714,51.531-196.384,7.388-318.134
					c-48.33-133.301-200.382-109.834-266.295-269.028c-36.055-87.079,6.268-101.764-25.826-188.547
					c-65.42-176.9-258.158-161.532-322.189-321.082c-37.277-92.884-18.092-213.053,43.237-283.833
					c123.009-141.966,417.538-87.521,584.129,44.123c21.46,16.958,182.974,148.307,198.611,342.809
					c9.435,117.354-41.12,172.075,0.536,243.525c58.765,100.799,191.84,47.575,250.285,137.124
					c79.192,121.338-108.654,305.589-18.148,442.142c35.03,52.853,72.06,38.659,107.079,99.356
					c57.593,99.822-9.524,195.475,3.725,278.563C1629.801,2562.902,1742.153,2671.861,2174.051,2757.735z"/>
				<path style="opacity:0.28;fill:#FFFFFF;" d="M1060.063,1207.467c78.146,180.32-49.239,294.282,42.261,436.521
					c74.31,115.517,191.491,91.904,223.534,199.45c30.709,103.072-68.55,152.865-41.398,270.599
					c22.38,97.042,97.73,97.532,172.996,223.039c75.763,126.335,45.13,202.072,84.04,279.242
					c41.77,82.845,160.284,160.53,479.247,165.07c47.849-6.473,98.849-14.303,153.307-23.653
					c-431.897-85.874-544.25-194.833-558.477-284.055c-13.248-83.087,53.869-178.74-3.724-278.562
					c-35.02-60.697-72.049-46.503-107.079-99.356c-90.506-136.553,97.34-320.804,18.149-442.142
					c-58.446-89.549-191.521-36.324-250.286-137.124c-41.655-71.45,8.899-126.171-0.536-243.525
					c-15.637-194.502-177.151-325.85-198.611-342.809c-166.591-131.644-461.12-186.09-584.129-44.123
					c-0.592,0.682-1.152,1.399-1.736,2.09c82.26,2.921,183.117,19.681,287.544,69.476
					C856.263,996.275,997.785,1063.758,1060.063,1207.467z"/>
			</g>
			<g>
				
					<linearGradient id="SVGID_00000164503769514149016390000013445058416148930472_" gradientUnits="userSpaceOnUse" x1="1409.986" y1="484.0689" x2="1575.7882" y2="1860.7316">
					<stop  offset="0" style="stop-color:#FFC444"/>
					<stop  offset="0.9964" style="stop-color:#F36F56"/>
				</linearGradient>
				<path style="fill:url(#SVGID_00000164503769514149016390000013445058416148930472_);" d="M1908.533,862.046
					c-122.812-204.857-375.131-404.04-660.657-383.851c-38.945,2.754-266.256,18.827-322.557,152.108
					c-57.074,135.109,79.171,349.035,218.56,462.407c101.029,82.175,185.699,96.872,190.163,161.57
					c6.021,87.22-143.815,119.103-158.036,246.2c-7.52,67.197,26.943,124.602,60.842,181.067
					c76.84,127.987,151.773,123.215,162.767,194.135c15.043,97.042-120.496,136.684-150.585,281.874
					c-21.437,103.447,24.515,193.597,50.408,244.395c100.935,198.017,372.783,311.427,689.484,305.275
					c-196.327-49.936-252.078-110.474-260.698-161.282c-14.106-83.157,99.034-134.408,83.89-229.173
					c-17.448-109.175-182.104-131.82-177.029-203.59c5.483-77.575,199.331-72.026,239.337-183.709
					c36.268-101.243-103.563-160.161-102.486-307.219c1.282-175.575,201.515-216.783,236.705-416.661
					C2032.67,1069.109,1963.116,953.091,1908.533,862.046z"/>
				<g>
					<defs>
						<path id="SVGID_00000137813795373403700580000014394947731576802988_" d="M1988.925,2707.227
							c-196.327-49.936-252.079-110.474-260.698-161.283c-14.107-83.157,99.033-134.408,83.889-229.173
							c-17.448-109.175-182.104-131.82-177.03-203.59c5.484-77.575,199.331-72.026,239.339-183.709
							c36.267-101.243-103.562-160.161-102.487-307.219c1.283-175.576,201.516-216.783,236.705-416.661
							c24.028-136.484-45.526-252.502-100.109-343.547c-122.813-204.857-375.132-404.04-660.657-383.852
							c-38.945,2.754-266.255,18.827-322.557,152.108c-57.074,135.109,79.171,349.035,218.558,462.408
							c101.03,82.174,185.7,96.872,190.165,161.57c6.019,87.22-143.815,119.103-158.037,246.201
							c-7.519,67.197,26.944,124.602,60.844,181.067c76.839,127.988,151.772,123.215,162.766,194.135
							c15.044,97.042-120.496,136.684-150.585,281.874c-21.437,103.446,24.515,193.596,50.408,244.395
							C1400.375,2599.969,1672.223,2713.379,1988.925,2707.227z"/>
					</defs>
					<clipPath id="SVGID_00000086661511843112265370000005415819061340194476_">
						<use xlink:href="#SVGID_00000137813795373403700580000014394947731576802988_"  style="overflow:visible;"/>
					</clipPath>
					<path style="opacity:0.7;clip-path:url(#SVGID_00000086661511843112265370000005415819061340194476_);fill:#FFFFFF;" d="
						M853.097,562.612c123.537,56.658,246.832,113.895,369.95,171.519c61.658,28.608,123.057,57.752,183.96,87.991
						c30.473,15.075,60.871,30.325,91.051,46.06c30.164,15.759,60.159,31.93,89.355,49.716c14.58,8.918,28.962,18.26,42.752,28.607
						c6.94,5.101,13.583,10.68,20.097,16.427c6.396,5.91,12.551,12.155,18.152,18.987c5.55,6.87,10.466,14.376,14.383,22.417
						c3.927,8.035,6.778,16.586,8.673,25.231c3.523,17.32,4.028,35.338,0.743,52.727c-3.181,17.402-9.733,33.928-17.982,49.232
						c-8.26,15.349-18.351,29.43-28.89,42.983c-21.2,27.071-44.852,51.636-67.482,76.853c-22.661,25.156-44.614,50.901-62.729,79.12
						c-8.898,14.169-17.037,28.809-23.442,44.185c-6.236,15.417-11.163,31.347-13.987,47.704
						c-5.212,32.673-3.201,66.804,6.956,98.339c5.129,15.759,12.434,30.759,21.096,44.995c8.694,14.238,18.87,27.638,29.331,40.925
						c10.482,13.297,21.373,26.434,31.359,40.466c5.066,6.947,9.729,14.245,14.214,21.651c4.283,7.538,8.464,15.178,11.806,23.237
						c7.005,15.964,11.555,33.035,13.586,50.329c2.066,17.304,1.892,34.737-0.141,51.975c-2.087,17.233-6.27,34.286-12.71,50.437
						c-6.477,16.131-14.855,31.426-24.447,45.714c-18.971,28.757-42.538,53.686-58.997,82.646
						c-8.26,14.402-14.244,29.957-16.94,46.168c-2.534,16.209-2.106,32.961,1.093,49.203c3.202,16.223,9.096,31.86,17.251,46.318
						c8.284,14.401,18.441,27.765,29.689,40.268c22.321,25.163,48.372,47.473,69.515,74.825
						c10.556,13.608,19.611,28.673,25.756,44.981c6.02,16.352,9.007,33.789,9.009,51.137c-0.09,17.342-3.014,34.827-9.338,51.054
						c-6.314,16.247-15.675,30.906-24.901,45.108c-9.067,14.183-18.126,28.613-20.646,44.813
						c-3.046,16.094,0.746,32.84,8.255,47.447c7.772,14.6,18.7,27.53,31.045,38.871c12.33,11.395,25.886,21.513,39.984,30.8
						c28.353,18.393,58.599,33.891,89.541,47.726c30.942,13.878,62.576,26.233,94.526,37.692
						c31.964,11.427,64.227,22.063,96.736,31.895c64.973,19.827,130.704,37.148,196.705,53.302l-0.107,0.451
						c-66.147-15.572-132.047-32.318-197.249-51.587c-32.624-9.552-65.015-19.916-97.139-31.081
						c-32.108-11.198-63.929-23.302-95.119-36.963c-31.193-13.621-61.751-28.926-90.597-47.279
						c-14.348-9.274-28.211-19.419-40.945-30.98c-12.75-11.494-24.214-24.772-32.49-40.186
						c-8.041-15.409-12.295-33.548-9.078-51.096c1.203-8.811,4.564-17.091,8.304-24.916c3.81-7.857,8.485-15.058,13.002-22.296
						c9.189-14.287,18.138-28.525,24.089-44.059c5.946-15.506,8.636-32.082,8.65-48.708c-0.091-16.631-3.023-33.156-8.812-48.673
						c-5.926-15.476-14.624-29.841-24.936-42.999c-20.62-26.456-46.643-48.561-69.56-74.09
						c-11.526-12.69-22.135-26.46-30.871-41.482c-8.615-15.084-14.946-31.594-18.401-48.696
						c-3.447-17.073-4.022-34.796-1.392-52.167c2.786-17.349,9.147-34.021,17.704-49.107c8.441-15.206,18.779-29.015,29.041-42.583
						c10.317-13.549,20.66-26.9,29.935-40.864c9.317-13.928,17.308-28.619,23.475-44.033c6.12-15.429,10.069-31.656,12.041-48.137
						c3.803-32.972,0.651-67.094-12.896-97.385c-13.023-30.618-35.094-56.492-56.228-83.107
						c-10.567-13.379-21.019-27.073-30.069-41.833c-9.016-14.755-16.72-30.49-22.138-47.053
						c-10.734-33.189-12.888-68.743-7.473-103.092c2.933-17.166,8.064-33.852,14.543-49.926
						c6.646-16.028,15.045-31.188,24.186-45.789c18.591-29.057,40.882-55.234,63.621-80.569
						c22.706-25.373,46.212-49.899,66.884-76.401c10.28-13.259,20.025-26.93,27.853-41.55c7.829-14.585,13.887-30.056,16.792-46.102
						c3.009-16.031,2.472-32.514-0.736-48.481c-3.306-15.938-10.482-30.604-20.758-43.3c-5.154-6.332-10.919-12.235-16.975-17.879
						c-6.204-5.509-12.557-10.899-19.293-15.886c-13.35-10.101-27.459-19.351-41.825-28.212
						c-28.775-17.685-58.573-33.905-88.57-49.723c-30.019-15.799-60.306-31.142-90.685-46.316l-91.302-45.242
						c-30.396-15.173-61.149-29.613-91.718-44.434C1097.3,682.049,974.982,622.83,852.904,563.032L853.097,562.612z"/>
				</g>
			</g>
			<g>
				<g>
					<defs>
						<path id="SVGID_00000141415834828529806940000016570503451115676073_" d="M1876.61,2654.607
							c-47.437,24.707-124.68,60.969-224.631,89.523c-205.847,58.808-559.952,99.769-681.646-59.294
							c-14.958-19.552-54.484-71.215-49.243-135.039c5.449-66.356,54.44-86.84,47.146-128.323
							c-9.974-56.721-107.539-52.42-204.536-117.526c-82.376-55.293-181.5-172.163-171.926-309.64
							c10.499-150.744,145.433-236.456,160.111-245.459c99.732-61.174,253.428-83.301,349.521-6.028
							c85.027,68.374,92.986,188.865,98.238,268.38c11.885,179.917-63.37,260.84-9.164,323.842
							c49.363,57.374,133.092,15.043,193.097,91.591c25.642,32.711,18.32,50.605,58.399,114.618
							c30.325,48.435,63.076,83.804,76.543,96.353C1622.738,2734.715,1855.94,2661.347,1876.61,2654.607z"/>
					</defs>
					
						<linearGradient id="SVGID_00000161618005548882580670000001788193715254575508_" gradientUnits="userSpaceOnUse" x1="1256.2124" y1="2121.8071" x2="1133.2949" y2="3247.7354">
						<stop  offset="0" style="stop-color:#FF9085"/>
						<stop  offset="1" style="stop-color:#FB6FBB"/>
					</linearGradient>
					
						<use xlink:href="#SVGID_00000141415834828529806940000016570503451115676073_"  style="overflow:visible;fill:url(#SVGID_00000161618005548882580670000001788193715254575508_);"/>
					<clipPath id="SVGID_00000090290682097588791270000016035725829790109117_">
						<use xlink:href="#SVGID_00000141415834828529806940000016570503451115676073_"  style="overflow:visible;"/>
					</clipPath>
					<path style="opacity:0.5;clip-path:url(#SVGID_00000090290682097588791270000016035725829790109117_);fill:#FFFFFF;" d="
						M1747.599,2714.35c-97.931,0-195.179-6.403-290.548-19.168c-288.37-38.594-320.955-103.167-331.66-124.389
						c-16.643-32.979-13.623-60.72-10.421-90.088c3.597-33.007,7.317-67.139-14.33-114.519
						c-19.74-43.215-45.473-63.282-70.357-82.689c-24.265-18.925-49.361-38.492-67.817-79.242
						c-23.787-52.51-16.579-95.116-8.946-140.222c4.184-24.732,8.51-50.306,8.052-78.955
						c-1.816-113.164-79.881-229.051-232.019-344.439l2.175-2.872c153.068,116.092,231.611,232.925,233.448,347.254
						c0.465,28.98-3.892,54.72-8.101,79.611c-7.538,44.551-14.658,86.629,8.672,138.134c18.093,39.942,41.728,58.374,66.754,77.889
						c25.226,19.673,51.311,40.016,71.42,84.035c22.055,48.281,18.11,84.473,14.633,116.406
						c-3.143,28.823-6.109,56.048,10.055,88.075c10.494,20.799,42.435,84.098,328.922,122.439
						c141.725,18.971,287.652,23.864,433.709,14.552l0.232,3.597C1843.454,2712.821,1795.44,2714.35,1747.599,2714.35z"/>
				</g>
			</g>
		</g>
		<g>
			
				<linearGradient id="SVGID_00000103960406855037122400000008143497752090935442_" gradientUnits="userSpaceOnUse" x1="1814.8641" y1="-918.2004" x2="1646.9543" y2="2724.876">
				<stop  offset="0" style="stop-color:#444B8C"/>
				<stop  offset="0.9964" style="stop-color:#26264F"/>
			</linearGradient>
			<path style="fill:url(#SVGID_00000103960406855037122400000008143497752090935442_);" d="M2503.03,922.195
				c0-36.654-26.893-67.37-58.432-68.612L926.522,793.756c-37.776-1.487-66.798,29.985-66.798,70.31v2387.265
				c0,40.325,27.692,70.049,65.47,66.237l1520.302-153.342c31.539-3.182,57.534-35.462,57.534-72.116V922.195z"/>
			
				<linearGradient id="SVGID_00000152954427876401975040000002349946894418449825_" gradientUnits="userSpaceOnUse" x1="1786.8687" y1="588.4352" x2="1618.9645" y2="4231.3931">
				<stop  offset="0" style="stop-color:#444B8C"/>
				<stop  offset="0.9964" style="stop-color:#26264F"/>
			</linearGradient>
			<path style="fill:url(#SVGID_00000152954427876401975040000002349946894418449825_);" d="M2542.671,922.195
				c0-36.654-24.583-67.37-56.123-68.612L969.12,793.756c-37.776-1.487-66.151,29.985-66.151,70.31v2387.265
				c0,40.325,28.2,70.049,65.978,66.237l1518.246-153.342c31.539-3.182,55.479-35.462,55.479-72.116V922.195z"/>
			
				<linearGradient id="SVGID_00000083809447310159179780000000723485901441051039_" gradientUnits="userSpaceOnUse" x1="1784.6063" y1="808.8751" x2="1642.1791" y2="3899.0669">
				<stop  offset="0.494" style="stop-color:#EBEFF2"/>
				<stop  offset="1" style="stop-color:#FFFFFF"/>
			</linearGradient>
			<path style="fill:url(#SVGID_00000083809447310159179780000000723485901441051039_);" d="M2474.2,1072.642v1879.953
				c0,19.474-14.441,38.462-31.216,39.967l-1319.137,119.06l-103.549,9.339c-5.978,0.531-11.734-0.709-16.381-3.276
				c-10.931-6.019-18.062-19.342-18.062-34.213V1033.87c0-11.597,3.557-21.732,11.168-28.548c2.17-1.948,4.631-3.63,7.021-4.913
				c4.513-2.567,9.642-3.851,15.529-3.673l104.095,2.921l1319.473,37.134C2459.959,1037.278,2474.2,1053.168,2474.2,1072.642z"/>
			<path style="fill:#FFFFFF;" d="M2416.523,2994.915l-1395.732,125.956c-19.846,1.791-34.937-16.171-34.937-37.401V1033.885
				c0-11.592,4.077-21.868,11.697-28.674c4.577,12.162,9.142,24.152,14.463,35.902c156.841,346.206,469.195,119.819,675.718,461.517
				c161.66,267.461,36.739,520.858,219.367,818.103c144.37,234.91,272.936,154.892,404.46,380.952
				C2362.205,2788.732,2395.174,2890.823,2416.523,2994.915z"/>
			<g>
				<g>
					<path style="fill:#97A6B7;" d="M1348.037,1571.755l-55.39,167.751h-71.216l181.203-533.321h83.086l181.993,533.321h-73.588
						l-56.973-167.751H1348.037z M1522.909,1517.948l-52.225-153.508c-11.87-34.815-19.781-66.467-27.695-97.326h-1.583
						c-7.911,31.651-16.615,64.093-26.902,96.537l-52.225,154.298H1522.909z"/>
				</g>
				<polygon style="fill:#97A6B7;" points="2308.762,1424.8 1736.757,1421.292 1736.757,1379.718 2308.762,1384.711 				"/>
				<polygon style="fill:#97A6B7;" points="2308.762,1497.389 1736.757,1496.569 1736.757,1454.995 2308.762,1457.3 				"/>
				<polygon style="fill:#97A6B7;" points="2308.762,1569.977 1736.757,1571.846 1736.757,1530.273 2308.762,1529.889 				"/>
				<polygon style="fill:#97A6B7;" points="2308.762,1642.566 1736.757,1647.124 1736.757,1605.55 2308.762,1602.477 				"/>
				<polygon style="fill:#97A6B7;" points="2308.762,1715.155 1736.757,1722.401 1736.757,1680.827 2308.762,1675.066 				"/>
				<polygon style="fill:#97A6B7;" points="2308.762,1834.969 1174.236,1858.143 1174.236,1815.109 2308.762,1794.881 				"/>
				<polygon style="fill:#97A6B7;" points="2308.762,1907.558 1174.236,1936.064 1174.236,1893.03 2308.762,1867.469 				"/>
				<polygon style="fill:#97A6B7;" points="2308.762,1980.147 1174.236,2013.986 1174.236,1970.952 2308.762,1940.058 				"/>
				<polygon style="fill:#97A6B7;" points="2308.762,2052.736 1174.236,2091.907 1174.236,2048.873 2308.762,2012.647 				"/>
				<polygon style="fill:#97A6B7;" points="2308.762,2125.324 1174.236,2169.828 1174.236,2126.794 2308.762,2085.236 				"/>
				<polygon style="fill:#97A6B7;" points="2308.762,2270.502 1174.236,2325.671 1174.236,2282.637 2308.762,2230.413 				"/>
				<polygon style="fill:#97A6B7;" points="2308.762,2343.091 1174.236,2403.592 1174.236,2360.558 2308.762,2303.002 				"/>
				<polygon style="fill:#97A6B7;" points="2308.762,2415.679 1174.236,2481.513 1174.236,2438.479 2308.762,2375.591 				"/>
				<polygon style="fill:#97A6B7;" points="2308.762,2488.268 1174.236,2559.435 1174.236,2516.401 2308.762,2448.179 				"/>
				<polygon style="fill:#97A6B7;" points="2308.762,2560.857 1174.236,2637.356 1174.236,2594.322 2308.762,2520.768 				"/>
				<polygon style="fill:#97A6B7;" points="2308.762,2684.854 1174.236,2768.252 1174.236,2725.218 2308.762,2644.765 				"/>
				<polygon style="fill:#97A6B7;" points="2308.762,2757.442 1174.236,2846.173 1174.236,2803.139 2308.762,2717.354 				"/>
				<polygon style="fill:#97A6B7;" points="2308.762,2830.031 1174.236,2924.094 1174.236,2881.06 2308.762,2789.942 				"/>
			</g>
			
				<linearGradient id="SVGID_00000000913400551930308910000001985132451245208723_" gradientUnits="userSpaceOnUse" x1="1043.5146" y1="1284.2705" x2="1198.4756" y2="1284.2705">
				<stop  offset="0" style="stop-color:#FF9085"/>
				<stop  offset="1" style="stop-color:#FB6FBB"/>
			</linearGradient>
			<path style="fill:url(#SVGID_00000000913400551930308910000001985132451245208723_);" d="M1194.101,997.444l-125.036-0.696
				l-6.307-0.036c-6.194-0.029-10.178,0.173-15.208,0.586c-2.281,0.187-4.035,2.097-4.035,4.385v570.15l77.481-85.481l77.48,64.507
				v-549.015C1198.476,999.423,1196.521,997.457,1194.101,997.444z"/>
			
				<linearGradient id="SVGID_00000181775676418155539170000002105135706520575401_" gradientUnits="userSpaceOnUse" x1="1043.5146" y1="1284.2705" x2="1198.4756" y2="1284.2705">
				<stop  offset="0" style="stop-color:#FF9085"/>
				<stop  offset="1" style="stop-color:#FB6FBB"/>
			</linearGradient>
			<path style="opacity:0.3;fill:url(#SVGID_00000181775676418155539170000002105135706520575401_);" d="M1131.194,1388.294
				c-91.283-32.434-45.624-211.432-37.227-291.903c4.793-45.876-10.702-79.318-24.902-99.643l-6.307-0.036
				c-6.194-0.029-10.178,0.173-15.208,0.586c-2.281,0.187-4.035,2.097-4.035,4.385v570.15l77.481-85.481l77.48,64.507v-85.048
				C1185.646,1430.998,1164.673,1400.187,1131.194,1388.294z"/>
			
				<linearGradient id="SVGID_00000159441356849649099900000009607834281201421479_" gradientUnits="userSpaceOnUse" x1="1797.2611" y1="2439.7444" x2="1681.2139" y2="5393.7397">
				<stop  offset="0" style="stop-color:#444B8C"/>
				<stop  offset="0.9964" style="stop-color:#26264F"/>
			</linearGradient>
			<path style="fill:url(#SVGID_00000159441356849649099900000009607834281201421479_);" d="M1890.394,3133.699
				c0,11.78-9.555,22.007-21.356,22.844l-198.203,14.052c-12.084,0.857-21.892-8.129-21.892-20.07l0,0
				c0-11.942,9.808-22.294,21.892-23.121l198.203-13.571C1880.839,3113.023,1890.394,3121.919,1890.394,3133.699L1890.394,3133.699z
				"/>
		</g>
		<g>
			<g>
				<path style="fill:#26264F;" d="M2120.041,1574.413c-3.203,0.862-5.911,2.97-7.502,5.84c-1.591,2.869-1.928,6.253-0.933,9.372
					l69.684,218.449c1.993,6.247,8.693,9.778,15.077,7.945l161.837-46.483c6.446-1.851,10.167-8.479,8.331-14.84l-62.742-217.396
					c-1.832-6.346-8.511-10.056-14.973-8.317L2120.041,1574.413z"/>
				<path style="fill:#FFFFFF;" d="M2132.917,1585.032c-2.856,0.769-5.271,2.649-6.69,5.208c-1.419,2.559-1.719,5.576-0.832,8.358
					l62.142,194.808c1.777,5.571,7.753,8.72,13.446,7.085l144.323-41.453c5.749-1.651,9.067-7.561,7.429-13.234l-55.952-193.869
					c-1.633-5.659-7.59-8.968-13.353-7.417L2132.917,1585.032z"/>
				<g>
					<polygon style="fill:#D8DEE8;" points="2256.423,1585.434 2182.654,1604.625 2177.934,1589.462 2251.817,1570.637 					"/>
					<g>
						<path style="fill:#D8DEE8;" d="M2301.122,1612.363c0.18,0.577-0.052,1.147-0.517,1.272l-62.029,16.716
							c-0.485,0.131-1.028-0.241-1.211-0.831l-3.988-12.812c-0.184-0.59,0.062-1.172,0.548-1.3l62.125-16.408
							c0.466-0.123,0.99,0.245,1.169,0.822L2301.122,1612.363z"/>
						<path style="fill:#D8DEE8;" d="M2305.621,1626.82c0.18,0.577-0.052,1.149-0.516,1.276l-61.935,17.021
							c-0.485,0.133-1.026-0.237-1.21-0.827l-1.108-3.559c-0.183-0.59,0.061-1.175,0.546-1.307l61.971-16.903
							c0.465-0.127,0.987,0.238,1.167,0.815L2305.621,1626.82z"/>
						<path style="fill:#D8DEE8;" d="M2309.741,1640.057c0.18,0.577-0.051,1.15-0.515,1.28l-61.848,17.3
							c-0.484,0.135-1.025-0.233-1.209-0.823l-1.108-3.559c-0.184-0.59,0.06-1.177,0.545-1.311l61.884-17.182
							c0.464-0.129,0.986,0.234,1.166,0.812L2309.741,1640.057z"/>
						<path style="fill:#D8DEE8;" d="M2313.861,1653.295c0.179,0.577-0.05,1.152-0.514,1.284l-61.761,17.578
							c-0.483,0.138-1.024-0.229-1.207-0.818l-1.108-3.559c-0.184-0.59,0.06-1.178,0.543-1.315l61.797-17.461
							c0.464-0.131,0.985,0.231,1.165,0.808L2313.861,1653.295z"/>
						<path style="fill:#D8DEE8;" d="M2317.981,1666.532c0.18,0.577-0.05,1.154-0.512,1.288l-61.674,17.857
							c-0.482,0.14-1.023-0.225-1.206-0.815l-1.107-3.559c-0.184-0.59,0.059-1.18,0.542-1.319l61.711-17.74
							c0.463-0.133,0.984,0.227,1.163,0.804L2317.981,1666.532z"/>
					</g>
					<g>
						<path style="fill:#D8DEE8;" d="M2234.293,1692.488l-49.547,14.355c-1.834,0.531-3.875-0.813-4.557-3.003l-20.259-65.091
							c-0.682-2.19,0.265-4.361,2.113-4.849l49.914-13.175c1.786-0.472,3.775,0.89,4.445,3.04l19.888,63.9
							C2236.96,1689.815,2236.066,1691.974,2234.293,1692.488z"/>
						<path style="fill:#D8DEE8;" d="M2162.479,1635.69l0.063-0.018l49.917-13.165c0.984-0.26,2.089,0.508,2.464,1.711
							l19.885,63.889c0.361,1.159-0.108,2.328-1.055,2.611l-49.544,14.365c-1.027,0.298-2.173-0.456-2.554-1.68l-20.262-65.102
							C2161.029,1637.136,2161.507,1635.988,2162.479,1635.69z M2161.932,1633.932c-1.774,0.544-2.669,2.672-2.002,4.817
							l20.259,65.091c0.682,2.19,2.723,3.534,4.557,3.003l49.547-14.355c0.007-0.002,0.013-0.004,0.02-0.006
							c1.76-0.524,2.645-2.675,1.978-4.817l-19.888-63.9c-0.669-2.15-2.658-3.511-4.445-3.04l-49.914,13.175
							C2162.006,1633.911,2161.969,1633.921,2161.932,1633.932z"/>
					</g>
					<g>
						<path style="fill:#D8DEE8;" d="M2224.188,1730.802l-31.47,9.217c-0.209,0.061-0.441-0.091-0.519-0.341l-1.542-4.957
							c-0.078-0.249,0.029-0.501,0.238-0.561l31.488-9.156c0.205-0.059,0.433,0.092,0.51,0.339l1.527,4.904
							C2224.496,1730.494,2224.393,1730.743,2224.188,1730.802z"/>
						<path style="fill:#D8DEE8;" d="M2250.227,1736.047l-53.772,15.979c-0.208,0.062-0.44-0.09-0.518-0.339l-1.543-4.957
							c-0.078-0.249,0.029-0.501,0.238-0.563l53.804-15.876c0.201-0.059,0.426,0.091,0.503,0.336l1.515,4.868
							C2250.53,1735.74,2250.429,1735.987,2250.227,1736.047z"/>
						<path style="fill:#D8DEE8;" d="M2253.898,1747.841l-53.706,16.19c-0.208,0.063-0.44-0.089-0.518-0.338l-1.543-4.957
							c-0.078-0.249,0.029-0.502,0.237-0.564l53.739-16.087c0.201-0.06,0.426,0.089,0.502,0.334l1.515,4.868
							C2254.201,1747.533,2254.099,1747.781,2253.898,1747.841z"/>
						<path style="fill:#D8DEE8;" d="M2257.57,1759.636l-53.641,16.401c-0.208,0.064-0.439-0.087-0.517-0.336l-1.543-4.957
							c-0.078-0.249,0.028-0.503,0.236-0.566l53.673-16.298c0.201-0.061,0.426,0.088,0.502,0.333l1.515,4.868
							C2257.871,1759.327,2257.77,1759.575,2257.57,1759.636z"/>
					</g>
					<g>
						<path style="fill:#D8DEE8;" d="M2312.991,1704.795l-47.478,13.905c-0.199,0.058-0.422-0.092-0.498-0.335l-1.506-4.839
							c-0.076-0.243,0.024-0.488,0.223-0.546l47.506-13.814c0.193-0.056,0.409,0.093,0.484,0.332l1.482,4.761
							C2313.28,1704.498,2313.184,1704.738,2312.991,1704.795z"/>
						<path style="fill:#D8DEE8;" d="M2330.868,1712.084l-61.707,18.337c-0.199,0.059-0.421-0.09-0.497-0.334l-1.506-4.839
							c-0.076-0.243,0.024-0.488,0.223-0.547l61.744-18.219c0.191-0.056,0.406,0.091,0.479,0.33l1.475,4.737
							C2331.153,1711.788,2331.059,1712.027,2330.868,1712.084z"/>
						<path style="fill:#D8DEE8;" d="M2334.441,1723.562l-61.632,18.579c-0.198,0.06-0.421-0.089-0.497-0.332l-1.506-4.839
							c-0.076-0.243,0.024-0.489,0.223-0.548l61.669-18.461c0.19-0.057,0.405,0.09,0.479,0.328l1.475,4.738
							C2334.725,1723.265,2334.631,1723.505,2334.441,1723.562z"/>
						<path style="fill:#D8DEE8;" d="M2338.013,1735.04l-61.556,18.821c-0.198,0.061-0.421-0.088-0.496-0.331l-1.506-4.839
							c-0.076-0.243,0.024-0.489,0.222-0.55l61.594-18.703c0.19-0.058,0.405,0.089,0.479,0.327l1.474,4.738
							C2338.297,1734.742,2338.203,1734.982,2338.013,1735.04z"/>
					</g>
				</g>
			</g>
			<g>
				
					<linearGradient id="SVGID_00000150083412512479749360000002245814399421509791_" gradientUnits="userSpaceOnUse" x1="2125.2446" y1="958.907" x2="852.2674" y2="1720.3911" gradientTransform="matrix(0.765 0.6441 -0.6441 0.765 2384.8918 -106.4033)">
					<stop  offset="0" style="stop-color:#FF9085"/>
					<stop  offset="1" style="stop-color:#FB6FBB"/>
				</linearGradient>
				<path style="fill:url(#SVGID_00000150083412512479749360000002245814399421509791_);" d="M3041.119,1685.385
					c8.913,3.369,144.839,57.424,172.777,199.292c2.257,11.461,24.095,133.348-58.564,219.454
					c-92.688,96.555-271.168,94.16-342.01,13.443c-16.521-18.823-25.237-39.686-30.118-57.215c-0.002-0.003,0.002,0,0.002,0
					l18.665-49.592c22.774-27.495,53.786-34.011,70.348-38.093c40.83-10.062,71.656,8.124,95.039-11.565
					c12.938-10.893,15.508-26.572,17.805-40.577c7.821-47.705-19.104-77.069-21.064-106.487
					c-1.465-21.992-9.163-70.179,19.541-101.602C3001.715,1692.544,3026.892,1687.126,3041.119,1685.385z"/>
				
					<linearGradient id="SVGID_00000080190858041698320280000009815069291811328161_" gradientUnits="userSpaceOnUse" x1="2725.0195" y1="3449.6147" x2="2780.7305" y2="3499.1697" gradientTransform="matrix(0.9902 -0.14 0.14 0.9902 -102.8428 206.9384)">
					<stop  offset="0" style="stop-color:#444B8C"/>
					<stop  offset="0.9964" style="stop-color:#26264F"/>
				</linearGradient>
				<path style="fill:url(#SVGID_00000080190858041698320280000009815069291811328161_);" d="M3094.082,3266.451
					c1.586-8.733,29.791-16.639,43.756-4.941c6.934,5.808,11.71,17.582,7.698,22.9c-1.46,1.936,4.518,5.337-1.21,5.405
					C3125.327,3290.035,3092.505,3275.129,3094.082,3266.451z"/>
				
					<linearGradient id="SVGID_00000103257243829891535760000001730567212443470210_" gradientUnits="userSpaceOnUse" x1="1853.4182" y1="3499.248" x2="1853.4182" y2="3402.1941" gradientTransform="matrix(0.9902 -0.14 0.14 0.9902 813.3583 77.4224)">
					<stop  offset="0" style="stop-color:#FFC444"/>
					<stop  offset="0.9964" style="stop-color:#F36F56"/>
				</linearGradient>
				<path style="fill:url(#SVGID_00000103257243829891535760000001730567212443470210_);" d="M3123.645,3269.629l29.007-4.1
					c-13.439-16.18-10.951-67.706-10.951-67.706l-30.848,6.885c0,0,3.515,14.144,9.494,35.006
					C3122.394,3246.855,3123.308,3258.032,3123.645,3269.629z"/>
				
					<linearGradient id="SVGID_00000016032853451977750150000010991073183323686558_" gradientUnits="userSpaceOnUse" x1="2730.6199" y1="3443.3191" x2="2786.3306" y2="3492.874" gradientTransform="matrix(0.9902 -0.14 0.14 0.9902 -102.8428 206.9384)">
					<stop  offset="0" style="stop-color:#444B8C"/>
					<stop  offset="0.9964" style="stop-color:#26264F"/>
				</linearGradient>
				<path style="fill:url(#SVGID_00000016032853451977750150000010991073183323686558_);" d="M3121.072,3266.055
					c0,0,34.923-8.046,38.7-1.119c3.777,6.927,6.71,25.475-15.447,24.877S3119.104,3271.929,3121.072,3266.055z"/>
				
					<linearGradient id="SVGID_00000098195749035818192370000010988180908634211466_" gradientUnits="userSpaceOnUse" x1="2684.0959" y1="3272.0483" x2="2739.8093" y2="3321.6055">
					<stop  offset="0" style="stop-color:#444B8C"/>
					<stop  offset="0.9964" style="stop-color:#26264F"/>
				</linearGradient>
				<path style="fill:url(#SVGID_00000098195749035818192370000010988180908634211466_);" d="M2696.077,3299.2
					c2.793-8.426,31.826-12.306,44.017,1.231c6.053,6.722,9.134,19.048,4.417,23.752c-1.717,1.712,3.727,5.917-1.955,5.182
					C2723.713,3326.925,2693.301,3307.572,2696.077,3299.2z"/>
				
					<linearGradient id="SVGID_00000119096802176101608920000015880783806082484610_" gradientUnits="userSpaceOnUse" x1="1812.4518" y1="3321.7043" x2="1812.4518" y2="3224.6458" gradientTransform="matrix(1 0 0 1 925.3102 0)">
					<stop  offset="0" style="stop-color:#FFC444"/>
					<stop  offset="0.9964" style="stop-color:#F36F56"/>
				</linearGradient>
				<path style="fill:url(#SVGID_00000119096802176101608920000015880783806082484610_);" d="M2724.904,3306.485h29.295
					c-11.042-17.902-1.366-68.572-1.366-68.572l-31.508,2.5c0,0,1.501,14.496,4.501,35.99
					C2726.853,3283.76,2726.194,3294.955,2724.904,3306.485z"/>
				
					<linearGradient id="SVGID_00000110441166355796046300000003603358848470415794_" gradientUnits="userSpaceOnUse" x1="-457.4426" y1="3366.2119" x2="-820.7332" y2="1899.4302" gradientTransform="matrix(-1 0 0 1 2275.7473 0)">
					<stop  offset="0" style="stop-color:#AB316D"/>
					<stop  offset="1" style="stop-color:#792D3D"/>
				</linearGradient>
				<path style="fill:url(#SVGID_00000110441166355796046300000003603358848470415794_);" d="M2648.983,2198.665
					c-13.571,44.813-32.95,117.142-45.426,207.889c-35.583,258.839,40.047,267.095,25.923,553.922
					c-4.509,91.556,79.319,302.675,86.707,307.337c3.577,0.345,7.456,0.58,11.594,0.455c7.291-0.221,17.571-1.338,29.525-4.922
					c13.278-2.287,61.154-131.962,50.058-209.061c-7.853-54.568-5.577-113.13-1.024-230.255
					c0.737-18.979,49.294-369.231,49.294-369.231c14.77,129.645,31.756,239.8,46.482,325.206
					c47.312,274.393,201.146,440.474,209.169,443.138c1.585,0.637,16.02,5.881,27.822-1.898c5.252-3.462,7.04-7.929,7.04-7.929
					c4.116-3.222-1.213-273.95-48.134-477.697c-68.106-295.736-38.449-364.934-60.027-497.027
					C3019.316,2124.292,2648.983,2198.665,2648.983,2198.665z"/>
				
					<linearGradient id="SVGID_00000115482861983541827570000010709395747511330732_" gradientUnits="userSpaceOnUse" x1="3376.4636" y1="1673.3906" x2="2167.2205" y2="2396.7495">
					<stop  offset="0" style="stop-color:#FF9085"/>
					<stop  offset="1" style="stop-color:#FB6FBB"/>
				</linearGradient>
				<path style="fill:url(#SVGID_00000115482861983541827570000010709395747511330732_);" d="M3074.656,1919.413
					c-14.163,55.065-14.452,49.84-31.642,119.176c-10.234,41.371-30.271,85.733-15.964,158.781
					c2.487,12.83,6.053,26.524,10.919,41.263c-32.252,17.01-78.13,36.073-135.464,44.615
					c-125.519,18.667-230.099-18.92-271.002-39.893c-1.045-4.721-2.342-9.73-2.342-15.028v-0.072
					c-3.604-10.09-4.344-21.37-6.001-34.307c-5.189-41.083-8.414-98.851-1.206-189.197v-0.108c0-1.838-0.198-3.712-0.053-5.586
					c1.837-24.47,7.217-80.616,26.604-146.6c10.991-37.407,21.735-62.489,33.807-84.003c16.685-29.731,35.031-51.714,40.401-58.02
					c5.764-6.739,10.361-11.82,11.334-12.721c57.264-51.497,144.826-36.722,190.052-35.425
					c40.47,1.225,118.416,3.063,161.696,54.308C3101.833,1735.623,3098.008,1828.491,3074.656,1919.413z"/>
				
					<linearGradient id="SVGID_00000080181665396786086840000011621131298271841471_" gradientUnits="userSpaceOnUse" x1="2689.6968" y1="3265.7517" x2="2745.4099" y2="3315.3088">
					<stop  offset="0" style="stop-color:#444B8C"/>
					<stop  offset="0.9964" style="stop-color:#26264F"/>
				</linearGradient>
				<path style="fill:url(#SVGID_00000080181665396786086840000011621131298271841471_);" d="M2722.856,3302.586
					c0,0,35.706-3.078,38.476,4.309s3.078,26.164-18.776,22.47C2720.702,3325.672,2720.086,3308.126,2722.856,3302.586z"/>
				
					<linearGradient id="SVGID_00000161593824903448006670000001397434714055491729_" gradientUnits="userSpaceOnUse" x1="2700.1069" y1="1673.0946" x2="2685.6917" y2="2093.5313">
					<stop  offset="0.0036" style="stop-color:#E38DDD"/>
					<stop  offset="1" style="stop-color:#9571F6"/>
				</linearGradient>
				<path style="fill:url(#SVGID_00000161593824903448006670000001397434714055491729_);" d="M2620.645,2046.645
					c-0.6,0-1.161-0.361-1.391-0.955c-0.294-0.768,0.087-1.63,0.856-1.927c0.702-0.268,70.76-27.704,136.071-92.189
					c0.588-0.57,1.531-0.582,2.107,0.012c0.579,0.588,0.573,1.531-0.011,2.107c-65.777,64.944-136.391,92.579-137.096,92.853
					C2621.003,2046.616,2620.822,2046.645,2620.645,2046.645z"/>
				
					<linearGradient id="SVGID_00000111904787532649161140000002619060685441608864_" gradientUnits="userSpaceOnUse" x1="3059.2063" y1="1685.4071" x2="3044.791" y2="2105.8445">
					<stop  offset="0" style="stop-color:#FF9085"/>
					<stop  offset="1" style="stop-color:#FB6FBB"/>
				</linearGradient>
				<path style="opacity:0.3;fill:url(#SVGID_00000111904787532649161140000002619060685441608864_);" d="M3023.581,2176.406
					c-0.748,0-1.394-0.565-1.479-1.327c-5.405-48.662,4.64-83.887,13.506-114.968c2.16-7.568,4.197-14.723,5.97-21.871
					c9.768-39.411,14.047-54.635,18.573-70.748c2.94-10.461,5.981-21.277,10.691-39.353c0.207-0.792,1.013-1.263,1.816-1.065
					c0.798,0.209,1.275,1.025,1.065,1.822c-4.716,18.099-7.757,28.927-10.703,39.406c-4.52,16.091-8.793,31.285-18.55,70.661
					c-1.784,7.195-3.831,14.373-5.999,21.97c-8.788,30.813-18.748,65.742-13.407,113.822c0.09,0.815-0.498,1.554-1.316,1.642
					C3023.692,2176.4,3023.636,2176.406,3023.581,2176.406z"/>
				
					<linearGradient id="SVGID_00000076577383891487957360000001374741437024445108_" gradientUnits="userSpaceOnUse" x1="3069.8081" y1="1978.1635" x2="2405.0691" y2="2375.8044">
					<stop  offset="0" style="stop-color:#FF9085"/>
					<stop  offset="1" style="stop-color:#FB6FBB"/>
				</linearGradient>
				<path style="opacity:0.3;fill:url(#SVGID_00000076577383891487957360000001374741437024445108_);" d="M3037.969,2238.633
					c-32.252,17.01-78.13,36.073-135.464,44.615c-125.519,18.667-230.099-18.92-271.002-39.893
					c-1.045-4.721-2.342-9.73-2.342-15.028v-0.072l-6.001-34.307c-5.189-41.083-8.414-98.851-1.206-189.197v-0.108
					c43.245-19.893,128.671-45.732,109.393,47.065c-26.127,125.807,3.395,120.545,63.757,123.176
					c60.363,2.631,44.078,70.201,121.559,53.984c37.299-7.82,76.799-24.47,110.422-31.497
					C3029.571,2210.2,3033.104,2223.894,3037.969,2238.633z"/>
				
					<linearGradient id="SVGID_00000163053063759237839180000010262783850307646643_" gradientUnits="userSpaceOnUse" x1="1326.9723" y1="432.9763" x2="1388.2533" y2="485.148" gradientTransform="matrix(0.1359 0.9907 0.9907 -0.1359 1532.756 497.6357)">
					<stop  offset="0" style="stop-color:#FFC444"/>
					<stop  offset="0.9964" style="stop-color:#F36F56"/>
				</linearGradient>
				<path style="fill:url(#SVGID_00000163053063759237839180000010262783850307646643_);" d="M2193.951,1821.07l-26.513-12.698
					c-4.116-3.293-10.417-9.136-15.191-18.09c-7.86-14.741-7.735-30.696-7.633-30.712c0.062-0.01-1.209-21.459,7.893-25.091
					c1.192-0.476,2.569-0.628,4.156-0.371l9.431,24.834c0,0,1.51,10.804,18.547,22.017c16.891,14.712,23.694,28.158,23.694,28.158
					L2193.951,1821.07z"/>
				
					<linearGradient id="SVGID_00000114789629976169641810000016590696752388640419_" gradientUnits="userSpaceOnUse" x1="3232.4189" y1="1438.9326" x2="2104.9316" y2="2113.3857">
					<stop  offset="0" style="stop-color:#FF9085"/>
					<stop  offset="1" style="stop-color:#FB6FBB"/>
				</linearGradient>
				<path style="fill:url(#SVGID_00000114789629976169641810000016590696752388640419_);" d="M2804.425,1678.796
					c-49.456-32.177-178.776,68.641-217.928,96.447c-151.815,107.816-133.616,175.07-202.563,141.497
					c-46.624-22.699-52.951-91.13-132.628-116.869c-3.656-1.181-7.179-2.178-10.53-3.024c-13.708-3.461-28.179-1.702-40.669,4.931
					c-5.015,2.664-9.186,4.876-9.231,4.89c-1.066,0.346-2.136,0.692-3.202,1.044c-13.732,4.553-24.712,15.001-29.967,28.483
					c-4.874,12.516-9.016,26.673-11.469,42.384c0.753,8.025,2.33,21.329,5.944,37.395c2.988,13.297,37.991,158.81,159.663,203.622
					c22.351,8.231,40.922,10.598,50.294,11.734c39.979,4.847,76.217-1.079,138.17-22.427
					c104.938-36.159,185.054-70.078,255.89-152.983c3.375-3.949,6.102-7.825,8.826-12
					C2817.703,1863.141,2852.171,1709.854,2804.425,1678.796z"/>
				<g>
					
						<linearGradient id="SVGID_00000039107861784671971060000001193261141190251922_" gradientUnits="userSpaceOnUse" x1="2827.6772" y1="1597.129" x2="3179.6438" y2="2165.3198">
						<stop  offset="0" style="stop-color:#FFC444"/>
						<stop  offset="0.9964" style="stop-color:#F36F56"/>
					</linearGradient>
					<path style="fill:url(#SVGID_00000039107861784671971060000001193261141190251922_);" d="M2796.818,1610.46
						c-14.005-23.681-7.765-50.733-6.358-56.578c5.89-24.473,8.081-28.185,12.624-33.364l6.423-6.792c0,0,0.398-0.297,0.822-0.588
						c4.466-3.071,21.144-8.064,24.743-8.245c11.501-0.577,34.905,40.663,48.306,104.218c1.088,2.268,2.167,4.561,3.234,6.877
						c6.647,14.417,12.349,28.598,17.245,42.423c77.721,6.572,88.508,15.69,88.854,20.956c0.729,11.085-43.555,23.895-76.858,28.771
						c-72.633,10.634-147.295-8.521-146.953-22.065c0.149-5.896,14.584-13.58,76.157-21.644c-1.44-10.189-2.88-20.378-4.32-30.567
						C2835.731,1632.752,2807.135,1627.906,2796.818,1610.46z"/>
					<path style="fill:#26264F;" d="M2782.209,1501.936c5.24,19.4,19.917,37.697,25.466,39.787c0.717,0.271,4.818,2.043,9.081,5.807
						c0.58,0.512,1.14,1.144,1.718,2c7.515,11.102-8.101,30.688-2.886,35.165c3.784,3.248,15.59-5.592,18.076-2.579
						c2.342,2.835-6.863,12.452-4.149,15.872c2.049,2.582,8.099-1.892,13.557,1.444c2.719,1.662,2.566,3.595,6.634,9.806
						c2.301,3.513,5.205,7.254,7.211,9.23c9.75,9.611,29.865,8.709,32.306,3.173c0.679-1.543-0.479-2.378-0.577-6.922
						c0,0-0.091-4.212,1.442-9.518c2.19-7.579,10.434-14.781,18.172-24.229c14.329-17.496,16.246-29.666,16.712-33.729
						c0.166-1.447,0.223-2.521,0.262-3.295c0.797-15.541-4.787-36.568-14.666-47.78c-16.552-18.783-38.126-2.02-63.746-18.172
						c-29.561-18.635-24.906-56.119-38.363-56.535C2793.624,1421,2772.519,1466.067,2782.209,1501.936z"/>
					
						<linearGradient id="SVGID_00000099646959394280920090000010219304584587331734_" gradientUnits="userSpaceOnUse" x1="2830.8462" y1="1595.166" x2="3182.8125" y2="2163.3562">
						<stop  offset="0" style="stop-color:#FFC444"/>
						<stop  offset="0.9964" style="stop-color:#F36F56"/>
					</linearGradient>
					<path style="fill:url(#SVGID_00000099646959394280920090000010219304584587331734_);" d="M2821.351,1578.27
						c3.015-7.808,13.015-3.893,15.32,4.554s-3.548,19.428-11.946,19.878C2816.326,1603.152,2817.293,1588.778,2821.351,1578.27z"/>
				</g>
				<path style="fill:#26264F;" d="M2821.437,1563.088l-7.211,17.304c0,0-7.211,20.768-16.73,12.982
					c-7.776-6.363-9.2-5.795-9.46-5.373c-0.049,0.082-0.042,0.18-0.059,0.18c-0.106,0-0.212-4.142-0.288-7.789
					c-1.814,5.004-4.039,12.927-4.038,22.788c0.001,9.579,0.001,19.837,7.5,27.69c0.433,0.454,8.602,8.764,19.614,8.366
					c0,0,4.329-0.157,20.768-7.786c0,0-22.499-8.654-23.652-11.826c-3.137-8.627,7.845-16.67,12.115-37.211
					C2821.642,1574.489,2821.682,1567.692,2821.437,1563.088z"/>
			</g>
		</g>
		
			<linearGradient id="SVGID_00000042003806117860390780000016250895149084180919_" gradientUnits="userSpaceOnUse" x1="1812.7289" y1="115.1241" x2="1677.1157" y2="3567.1719">
			<stop  offset="0.494" style="stop-color:#EBEFF2"/>
			<stop  offset="1" style="stop-color:#FFFFFF"/>
		</linearGradient>
		<circle style="fill:url(#SVGID_00000042003806117860390780000016250895149084180919_);" cx="1780.48" cy="936.024" r="37.839"/>
	</g>
</g>
</svg>
